<svg width="104" height="56" xmlns="http://www.w3.org/2000/svg" xmlns:xlink="http://www.w3.org/1999/xlink"><defs><path id="a" d="M0 0h104v56H0z"/><path id="c" d="M0 0h104v56H0z"/><path id="e" d="M0 0h104v56H0z"/><path id="g" d="M0 0h104v56H0z"/><path id="i" d="M0 0h104v56H0z"/><path id="k" d="M0 0h104v56H0z"/></defs><g fill="none" fill-rule="evenodd"><mask id="b" fill="#fff"><use xlink:href="#a"/></mask><path d="M26.6 19.7c-.2-.5-.4-2.3-.4-3.4 0-5.8 4.2-10.9 15.1-10.9H47S45.7 6 42.9 8c-2.8 2.1-16.3 11.7-16.3 11.7zm45.1-4.3L92.4 0H82.1L66.5 11.7 62.4 9h-9.8l8.9 6.4-6.9 5.7c-3.5 2.9-8.4 7-15.7 7-2.9 0-6.9-.6-9.2-3.1L63.3 0H43C30.6 0 24.3 7 24.3 15.7c0 1.8.4 4.1.9 5.1L11.2 31h10.6l6.4-4.8c2.3 2.8 7.3 5.5 12.6 5.5 8.7.1 16.5-5.6 19.3-7.8l6.3-4.9 16.5 12h11.5L71.7 15.4z" fill="#FECF09" mask="url(#b)"/><path d="M28.7 41l-3.1 4.3-3.1-4.3h-5l5.6 7.2-5.8 7.4h4.9l3.3-4.5 3.3 4.5h5L28 48.1l5.5-7.1h-4.8z" fill="#FFF"/><mask id="d" fill="#fff"><use xlink:href="#c"/></mask><path d="M76 54l1.2-3.2c1.7 1.2 4.1 1.9 5.5 1.9 1.3 0 1.8-.4 1.8-1.1v-.1c0-.9-1.5-1.2-3.2-1.7-2.1-.6-4.6-1.6-4.6-4.4v-.1c0-3 2.5-4.7 5.6-4.7 1.9 0 3.7.4 5.3 1.5l-.9 3.1c-1.5-.9-3.4-1.4-4.5-1.4s-1.6.4-1.6 1v.2c0 .8 1.5 1.2 3.1 1.8 2.2.7 4.6 1.7 4.6 4.4v.1c0 3.3-2.5 4.8-5.9 4.8-2-.1-4.4-.5-6.4-2.1" fill="#FFF" mask="url(#d)"/><mask id="f" fill="#fff"><use xlink:href="#e"/></mask><path d="M91.5 54l1.2-3.2c1.7 1.2 4.1 1.9 5.5 1.9 1.3 0 1.8-.4 1.8-1.1v-.1c0-.9-1.5-1.2-3.2-1.7-2.1-.6-4.6-1.6-4.6-4.4v-.1c0-3 2.5-4.7 5.6-4.7 1.9 0 3.7.4 5.3 1.5l-.9 3.1c-1.5-.9-3.4-1.4-4.5-1.4s-1.6.4-1.6 1v.2c0 .8 1.5 1.2 3.1 1.8 2.1.7 4.6 1.7 4.6 4.4v.1c0 3.3-2.6 4.8-5.9 4.8-1.9-.1-4.3-.5-6.4-2.1" fill="#FFF" mask="url(#f)"/><mask id="h" fill="#fff"><use xlink:href="#g"/></mask><path d="M37.8 41h4.5v2.4c.9-.9 2.3-2.6 4.9-2.6 3.3 0 5.2 1.7 5.2 6.3v8.6h-4.3v-8.3c0-1.8-.9-2.9-2.2-2.9-1.5 0-2.8.9-3.6 1.9v9.2h-4.5V41z" fill="#FFF" mask="url(#h)"/><mask id="j" fill="#fff"><use xlink:href="#i"/></mask><path d="M11.4 46.4c-.3-2-2-2.9-3.5-2.9s-3.1 1-3.5 2.9h7zm3.6 5.4c-.4 1.1-1.9 4.2-7 4.2-2.4 0-4.2-.7-5.6-2C.7 52.5 0 50.6 0 48.4c0-2.9 1.2-4.6 2.2-5.6 1.7-1.7 3.8-2 5.5-2 3 0 4.7 1.2 5.7 2.4 1.6 1.8 1.8 4.1 1.8 5.6v.2h-11c0 .9.2 1.8.7 2.4.4.6 1.4 1.4 3 1.4s2.8-.7 3.4-1.9l3.7.9z" fill="#FFF" mask="url(#j)"/><mask id="l" fill="#fff"><use xlink:href="#k"/></mask><path d="M68.2 46.4c-.3-2-2-2.9-3.5-2.9s-3.1 1-3.5 2.9h7zm3.6 5.4c-.4 1.1-1.9 4.2-7 4.2-2.4 0-4.2-.7-5.6-2-1.6-1.5-2.3-3.4-2.3-5.6 0-2.9 1.2-4.6 2.2-5.6 1.7-1.7 3.8-2 5.5-2 3 0 4.7 1.2 5.7 2.4 1.6 1.8 1.8 4.1 1.8 5.6v.2h-11c0 .9.2 1.8.7 2.4.4.6 1.4 1.4 3 1.4s2.8-.7 3.4-1.9l3.6.9z" fill="#FFF" mask="url(#l)"/></g></svg>