<svg width="320" height="251" xmlns="http://www.w3.org/2000/svg" xmlns:xlink="http://www.w3.org/1999/xlink"><defs><path id="a" d="M0 1.333h320v250.519H0z"/><path id="c" d="M0 1.333h320v250.519H0z"/></defs><g fill="none" fill-rule="evenodd"><g transform="translate(0 -.852)"><mask id="b" fill="#fff"><use xlink:href="#a"/></mask><path d="M74.667 46.37c0-8.444-2.815-15.11-8.297-20.148-5.481-5.037-12.592-7.407-21.481-7.407-8.889 0-16 2.518-21.63 7.407-5.63 4.89-8.444 11.556-8.444 20.148v161.186c0 8.444 2.815 15.11 8.444 20.148 5.63 4.889 12.89 7.407 21.63 7.407 8.74 0 15.852-2.518 21.481-7.407 5.63-4.89 8.297-11.556 8.297-20.148V46.37zM89.63 206.963c0 7.111-1.186 13.185-3.704 18.37-2.37 5.186-5.63 9.482-9.778 12.89-4 3.407-8.74 5.925-14.222 7.703-5.482 1.778-11.111 2.518-17.185 2.518-6.074 0-11.704-.888-17.185-2.518-5.482-1.778-10.223-4.296-14.223-7.704-4-3.407-7.259-7.703-9.777-12.889-2.37-5.185-3.704-11.259-3.704-18.37v-160c0-6.815 1.185-12.889 3.704-17.926 2.37-5.185 5.63-9.481 9.777-13.037 4-3.556 8.741-6.222 14.223-7.852C33.037 6.37 38.666 5.63 44.74 5.63c6.222 0 12.148.889 17.481 2.518C67.704 9.926 72.444 12.444 76.444 16s7.26 7.852 9.482 13.037c2.37 5.185 3.407 11.111 3.407 17.926v160h.297z" fill="#010101" mask="url(#b)"/></g><g transform="translate(0 -.852)"><mask id="d" fill="#fff"><use xlink:href="#c"/></mask><path d="M306.815 128.148c0-4.592-1.63-8.148-4.74-10.667-3.112-2.518-7.408-3.703-12.742-3.703-5.333 0-9.63 1.185-12.889 3.703-3.259 2.519-4.888 6.075-4.888 10.667v93.482c0 4.592 1.63 8 4.888 10.518 3.26 2.37 7.556 3.556 12.89 3.556 5.333 0 9.48-1.185 12.74-3.556 3.111-2.37 4.74-5.926 4.74-10.518v-93.482zM320 221.333c0 8.741-3.111 15.26-9.185 19.556-6.074 4.296-13.334 6.518-21.334 6.518-8.148 0-15.259-2.222-21.333-6.518-6.074-4.296-9.185-10.815-9.185-19.556v-92.889c0-8.888 3.111-15.407 9.185-19.703 6.074-4.297 13.185-6.37 21.333-6.37 8.149 0 15.26 2.073 21.334 6.37 6.074 4.296 9.185 10.815 9.185 19.703v92.89zm-133.037 30.519h-11.407L284.593 1.333H296L186.963 251.852zm12.444-219.704c0-4.592-1.63-8.148-4.74-10.667-3.111-2.518-7.408-3.703-12.741-3.703-5.333 0-9.63 1.333-12.889 3.703-3.26 2.519-4.889 6.075-4.889 10.667v93.926c0 4.296 1.63 7.704 4.889 10.222 3.26 2.519 7.556 3.704 12.889 3.704 5.333 0 9.481-1.185 12.74-3.704 3.112-2.518 4.741-5.926 4.741-10.222V32.148zm13.186 93.333c0 8.741-3.112 15.26-9.186 19.556-6.074 4.296-13.333 6.519-21.333 6.519-8.148 0-15.26-2.223-21.333-6.519-6.074-4.296-9.185-10.815-9.185-19.556V32.593c0-8.741 3.11-15.26 9.185-19.556 6.074-4.296 13.185-6.518 21.333-6.518 8.148 0 15.26 2.222 21.333 6.518 6.074 4.296 9.186 10.815 9.186 19.556v92.888z" fill="#010101" mask="url(#d)"/></g></g></svg>